<svg xmlns="http://www.w3.org/2000/svg" xmlns:xlink="http://www.w3.org/1999/xlink" width="1300" zoomAndPan="magnify" viewBox="0 0 974.88 299.999988" height="400" preserveAspectRatio="xMidYMid meet" version="1.0"><defs><clipPath id="96fd4fb933"><path d="M 0 0.0195312 L 974.761719 0.0195312 L 974.761719 299.980469 L 0 299.980469 Z M 0 0.0195312 " clip-rule="nonzero"/></clipPath><clipPath id="f4fe16ff38"><path d="M 0 75 L 974.761719 75 L 974.761719 221 L 0 221 Z M 0 75 " clip-rule="nonzero"/></clipPath></defs><g clip-path="url(#96fd4fb933)"><path fill="#ffffff" d="M 0 0.0195312 L 974.878906 0.0195312 L 974.878906 307.480469 L 0 307.480469 Z M 0 0.0195312 " fill-opacity="1" fill-rule="nonzero"/><path fill="#ffffff" d="M 0 0.0195312 L 974.878906 0.0195312 L 974.878906 299.980469 L 0 299.980469 Z M 0 0.0195312 " fill-opacity="1" fill-rule="nonzero"/><path fill="#ffffff" d="M 0 0.0195312 L 974.878906 0.0195312 L 974.878906 299.980469 L 0 299.980469 Z M 0 0.0195312 " fill-opacity="1" fill-rule="nonzero"/></g><g clip-path="url(#f4fe16ff38)"><path stroke-linecap="butt" transform="matrix(0.92781, 0, 0, 0.92781, -9.388709, 88.76452)" fill="none" stroke-linejoin="miter" d="M 114.733834 46.860525 C 114.733834 53.20106 113.218169 58.699558 110.186837 63.364441 C 107.155505 68.025113 102.89059 71.616399 97.392092 74.129878 C 91.889383 76.622306 85.574109 77.86852 78.437849 77.86852 L 60.359325 77.86852 C 59.302569 77.86852 58.776296 78.361112 58.776296 79.350505 L 58.776296 109.162808 C 58.776296 110.58164 58.422641 111.583663 57.71533 112.160458 C 57.003809 112.720413 55.909162 112.998285 54.427177 112.998285 L 32.218463 112.998285 C 30.909097 112.998285 30.008118 112.741464 29.511316 112.227821 C 29.039776 111.688918 28.804005 110.851092 28.804005 109.714342 L 28.804005 18.079716 C 28.804005 16.058828 29.641832 15.048384 31.317484 15.048384 L 75.023391 15.048384 C 82.416472 15.048384 89.119083 16.260917 95.135434 18.690192 C 101.172836 21.098417 105.942973 24.677072 109.445845 29.421948 C 112.969768 34.171034 114.733834 39.985296 114.733834 46.860525 Z M 84.113176 46.473188 C 84.113176 43.378703 83.06063 40.886275 80.951328 38.995903 C 78.846237 37.105531 76.248554 36.15824 73.15407 36.15824 L 61.807628 36.15824 C 60.670878 36.15824 59.875154 36.38559 59.424664 36.83608 C 58.991015 37.265518 58.776296 37.964409 58.776296 38.932751 L 58.776296 53.853638 C 58.776296 54.906184 58.948913 55.659806 59.294148 56.110296 C 59.660434 56.539735 60.228809 56.754454 61.003483 56.754454 L 73.958215 56.754454 C 77.031648 56.754454 79.490395 55.769271 81.338665 53.790485 C 83.186935 51.81591 84.113176 49.374004 84.113176 46.473188 Z M 210.978611 108.779682 C 211.151228 109.120706 211.235432 109.604877 211.235432 110.227984 C 211.235432 111.023709 210.987031 111.688918 210.49444 112.227821 C 210.022899 112.741464 209.399792 112.998285 208.625119 112.998285 L 183.001947 112.998285 C 181.153677 112.998285 179.957985 112.076255 179.423292 110.227984 L 167.011673 76.159186 C 166.754852 75.451875 166.316993 74.925603 165.693886 74.580368 C 165.09183 74.235133 164.165589 74.062515 162.919375 74.062515 L 156.860922 74.062515 C 156.322019 74.062515 155.926262 74.235133 155.669441 74.580368 C 155.408409 74.925603 155.282104 75.237156 155.282104 75.515028 L 155.282104 109.162808 C 155.282104 110.58164 154.928449 111.583663 154.216928 112.160458 C 153.509617 112.720413 152.41497 112.998285 150.928775 112.998285 L 128.724271 112.998285 C 127.410694 112.998285 126.509715 112.741464 126.017124 112.227821 C 125.541373 111.688918 125.305603 110.851092 125.305603 109.714342 L 125.305603 18.079716 C 125.305603 16.058828 126.143429 15.048384 127.819082 15.048384 L 171.912326 15.048384 C 184.6776 15.048384 194.571529 17.48608 201.598324 22.365682 C 208.64617 27.241073 212.170093 34.128932 212.170093 43.025048 C 212.170093 49.104552 210.557593 54.523057 207.336803 59.272143 C 204.132854 64.017019 199.985824 67.359904 194.895713 69.292378 C 194.35681 69.57446 194.087358 70.012319 194.087358 70.614375 C 194.087358 70.875407 194.175772 71.271164 194.344179 71.810067 Z M 170.720844 54.371491 C 174.072149 54.371491 176.652991 53.521034 178.45495 51.82433 C 180.261118 50.106575 181.162097 47.786765 181.162097 44.860688 C 181.162097 41.618847 180.08008 39.092737 177.907626 37.286569 C 175.760433 35.484611 173.095387 34.579422 169.916699 34.579422 L 158.309225 34.579422 C 157.172476 34.579422 156.376751 34.785721 155.926262 35.194108 C 155.496823 35.581445 155.282104 36.255074 155.282104 37.223416 L 155.282104 51.60119 C 155.282104 52.565322 155.433671 53.276843 155.732594 53.727333 C 156.031516 54.156771 156.625152 54.371491 157.50508 54.371491 Z M 267.63504 114.320282 C 258.031613 114.320282 249.640719 112.278343 242.462357 108.198676 C 235.283996 104.093748 229.764446 98.279486 225.895288 90.7601 C 222.02613 83.240713 220.093657 74.420381 220.093657 64.299101 C 220.093657 54.177822 222.051391 45.315388 225.958441 37.707587 C 229.890752 30.078736 235.435562 24.18027 242.592873 20.012189 C 249.767024 15.823058 258.115817 13.726387 267.63504 13.726387 C 277.049008 13.726387 285.309387 15.823058 292.420385 20.012189 C 299.556645 24.18027 305.076194 30.078736 308.987454 37.707587 C 312.919765 45.315388 314.88592 54.177822 314.88592 64.299101 C 314.88592 74.331967 312.940816 83.131249 309.054817 90.696947 C 305.185659 98.258435 299.68295 104.093748 292.550901 108.198676 C 285.439902 112.278343 277.133212 114.320282 267.63504 114.320282 Z M 267.63504 93.724068 C 271.504198 93.724068 274.577631 92.780987 276.85534 90.890615 C 279.1541 89.000243 280.829752 85.947861 281.882298 81.733468 C 282.934844 77.502234 283.461116 71.818488 283.461116 64.686438 C 283.461116 53.769434 282.227533 45.938495 279.756156 41.189408 C 277.305829 36.440322 273.264054 34.065779 267.63504 34.065779 C 261.896561 34.065779 257.770582 36.440322 255.257102 41.189408 C 252.764674 45.938495 251.51846 53.769434 251.51846 64.686438 C 251.51846 71.818488 252.044733 77.502234 253.097279 81.733468 C 254.149824 85.947861 255.838108 89.000243 258.157918 90.890615 C 260.50299 92.780987 263.660627 93.724068 267.63504 93.724068 Z M 374.409483 85.021621 C 374.409483 95.572338 371.832851 103.095935 366.675378 107.58399 C 361.538955 112.076255 353.644862 114.320282 342.98468 114.320282 C 337.978772 114.320282 332.530796 113.794009 326.64496 112.741464 C 325.053511 112.484642 323.946233 111.937319 323.323126 111.099492 C 322.700019 110.261666 322.443198 108.918618 322.548453 107.070347 L 323.710463 92.018944 C 323.904131 89.998057 324.78406 88.987613 326.354458 88.987613 C 327.428054 88.987613 328.493231 89.118128 329.545776 89.37495 C 331.47825 89.720185 333.014967 89.888592 334.155926 89.888592 C 337.507232 89.888592 340.062813 88.92446 341.826879 86.987776 C 343.586736 85.055302 344.466664 81.927136 344.466664 77.611699 L 344.466664 18.079716 C 344.466664 17.111374 344.702434 16.370381 345.178185 15.852529 C 345.670776 15.317836 346.306514 15.048384 347.076977 15.048384 L 372.055991 15.048384 C 373.626389 15.048384 374.409483 15.974624 374.409483 17.818684 Z M 387.490521 18.079716 C 387.490521 16.058828 388.328347 15.048384 390.004 15.048384 L 461.299234 15.048384 C 462.869632 15.048384 463.652726 15.974624 463.652726 17.818684 L 463.52221 33.131119 C 463.52221 35.514082 462.385461 36.709774 460.107752 36.709774 L 420.494143 36.709774 C 418.473255 36.709774 417.462812 37.53497 417.462812 39.189572 L 417.462812 50.405498 C 417.462812 51.285427 417.677531 51.975897 418.11118 52.468488 C 418.561669 52.96529 419.142674 53.20948 419.849985 53.20948 L 443.603836 53.20948 C 445.452106 53.20948 446.378346 54.080988 446.378346 55.819793 L 446.378346 72.193194 C 446.378346 73.700439 445.582622 74.449852 443.991173 74.449852 L 419.559483 74.449852 C 418.957426 74.449852 418.452204 74.6351 418.043817 74.997176 C 417.65648 75.342411 417.462812 75.771849 417.462812 76.289702 L 417.462812 89.501255 C 417.462812 90.212776 417.572276 90.696947 417.786996 90.953768 C 418.001715 91.210589 418.422733 91.341105 419.04584 91.341105 L 461.943392 91.341105 C 463.880076 91.341105 464.844208 92.178931 464.844208 93.854584 L 464.844208 110.097469 C 464.844208 110.981607 464.574756 111.688918 464.040063 112.227821 C 463.52221 112.741464 462.739116 112.998285 461.686571 112.998285 L 391.069176 112.998285 C 389.734548 112.998285 388.799888 112.741464 388.260984 112.227821 C 387.747342 111.688918 387.490521 110.851092 387.490521 109.714342 Z M 520.035493 13.726387 C 527.34016 13.726387 533.937516 15.027333 539.827562 17.629226 C 545.734448 20.205858 550.580368 23.784513 554.361112 28.360982 C 558.146067 32.93745 560.604813 38.179128 561.741563 44.090224 C 562.023645 45.14277 562.162581 45.980596 562.162581 46.603703 C 562.162581 47.399428 562.002594 47.925701 561.67841 48.182522 C 561.379487 48.439343 560.827953 48.611961 560.036439 48.696164 L 536.926746 50.148677 C 536.042607 50.148677 535.474233 49.997111 535.217412 49.698188 C 534.96059 49.395055 534.691139 48.708795 534.409057 47.635198 C 533.638593 43.425016 532.18608 40.115812 530.059938 37.707587 C 527.954846 35.278312 524.881413 34.065779 520.839638 34.065779 C 515.640062 34.065779 511.631968 36.351909 508.819566 40.932587 C 506.002954 45.509056 504.596753 52.940028 504.596753 63.233925 C 504.596753 73.873057 505.885069 81.434545 508.465911 85.92681 C 511.063593 90.414865 515.13484 92.663102 520.679651 92.663102 C 525.365584 92.663102 529.352627 91.480041 532.63657 89.118128 C 535.945773 86.730955 538.699233 82.764963 540.888528 77.224362 C 541.145349 76.428638 541.898972 76.02867 543.145186 76.02867 C 543.747242 76.02867 544.231413 76.074982 544.597699 76.159186 L 561.097405 79.48102 C 562.410982 79.910459 563.06356 80.920903 563.06356 82.508142 C 563.06356 84.979519 561.547894 88.793944 558.520773 93.951418 C 555.489441 99.087841 550.740355 103.769564 544.273515 108.005008 C 537.806674 112.215191 529.63892 114.320282 519.778672 114.320282 C 510.453117 114.320282 502.264312 112.097306 495.216466 107.651353 C 488.16862 103.20119 482.733274 97.088004 478.910428 89.311797 C 475.083372 81.510328 473.171949 72.635263 473.171949 62.686601 C 473.171949 52.847404 475.083372 44.22916 478.910428 36.83608 C 482.733274 29.447209 488.189671 23.750832 495.283829 19.755368 C 502.373776 15.734644 510.625734 13.726387 520.035493 13.726387 Z M 570.20824 18.079716 C 570.20824 17.195577 570.490322 16.475636 571.046066 15.919892 C 571.627072 15.338887 572.443847 15.048384 573.496393 15.048384 L 652.433108 15.048384 C 653.506705 15.048384 654.32348 15.338887 654.879224 15.919892 C 655.46023 16.475636 655.750732 17.195577 655.750732 18.079716 L 655.750732 33.775277 C 655.750732 35.450929 654.78239 36.288756 652.849916 36.288756 L 629.483402 36.288756 C 628.430857 36.288756 627.904584 36.730825 627.904584 37.610753 L 627.904584 110.097469 C 627.904584 111.065811 627.677234 111.798383 627.226744 112.290974 C 626.797306 112.762514 626.182619 112.998285 625.391105 112.998285 L 600.311046 112.998285 C 598.723808 112.998285 597.928083 112.118357 597.928083 110.3585 L 597.928083 38.158077 C 597.928083 36.911863 597.443912 36.288756 596.47557 36.288756 L 573.239572 36.288756 C 571.218684 36.288756 570.20824 35.450929 570.20824 33.775277 Z M 724.646162 41.315714 C 722.541071 39.016954 720.271782 37.257098 717.846717 36.031935 C 715.438493 34.806772 711.948251 34.192085 707.367572 34.192085 C 702.791104 34.192085 699.397696 34.861504 697.18314 36.191922 C 694.993845 37.501288 693.894988 39.084317 693.894988 40.932587 C 693.894988 44.090224 696.7116 46.325831 702.340614 47.635198 L 724.258825 53.339996 C 732.275013 55.360883 738.299785 58.905857 742.34156 63.974917 C 746.400176 69.027137 748.433694 75.072959 748.433694 82.120805 C 748.433694 88.633957 746.71173 94.305073 743.276221 99.142573 C 739.836501 103.975863 734.927428 107.714505 728.544791 110.3585 C 722.162154 112.998285 714.705921 114.320282 706.176091 114.320282 C 696.48425 114.320282 687.655497 112.720413 679.681411 109.520674 C 671.732586 106.295674 666.221457 102.085491 663.148023 96.885915 C 662.697534 96.001777 662.470184 95.349199 662.470184 94.91976 C 662.470184 94.035622 662.954355 93.244107 663.922697 92.532587 L 677.521587 83.1523 C 678.489929 82.550243 679.369857 82.25132 680.165582 82.25132 C 681.133924 82.25132 681.929648 82.638657 682.552755 83.413331 C 685.537775 87.299329 688.569106 90.040158 691.64254 91.631607 C 694.732814 93.197795 698.829322 93.9851 703.919433 93.9851 C 708.862187 93.9851 712.765027 93.30726 715.61953 91.951581 C 718.478244 90.579062 719.905496 88.709741 719.905496 86.343618 C 719.905496 84.667965 719.198186 83.219662 717.779354 81.994499 C 716.381573 80.748285 714.322794 79.813625 711.590386 79.190518 L 691.512024 74.323546 C 683.605301 72.386862 677.319498 68.757685 672.654616 63.427594 C 667.993944 58.097502 665.661502 51.963266 665.661502 45.024885 C 665.661502 39.286406 667.328735 34.023678 670.658989 29.23249 C 674.010295 24.437092 678.759381 20.656347 684.906248 17.886047 C 691.069955 15.111537 698.206215 13.726387 706.306606 13.726387 C 714.23438 13.726387 721.585359 15.027333 728.351123 17.629226 C 735.121097 20.205858 740.009119 23.653998 743.019399 27.973645 C 743.617245 28.76937 743.920379 29.518782 743.920379 30.230303 C 743.920379 30.832359 743.617245 31.400734 743.019399 31.939637 L 728.612154 42.38089 C 728.178505 42.726125 727.698545 42.894532 727.159641 42.894532 C 726.557585 42.894532 725.719759 42.36826 724.646162 41.315714 Z M 844.779515 46.860525 C 844.779515 53.20106 843.26385 58.699558 840.232518 63.364441 C 837.205397 68.025113 832.940482 71.616399 827.437773 74.129878 C 821.939274 76.622306 815.61979 77.86852 808.48774 77.86852 L 790.405006 77.86852 C 789.35246 77.86852 788.826187 78.361112 788.826187 79.350505 L 788.826187 109.162808 C 788.826187 110.58164 788.468322 111.583663 787.761011 112.160458 C 787.0537 112.720413 785.954843 112.998285 784.472858 112.998285 L 762.268355 112.998285 C 760.954778 112.998285 760.053799 112.741464 759.556997 112.227821 C 759.085457 111.688918 758.849686 110.851092 758.849686 109.714342 L 758.849686 18.079716 C 758.849686 16.058828 759.687513 15.048384 761.363165 15.048384 L 805.069072 15.048384 C 812.462153 15.048384 819.164764 16.260917 825.181115 18.690192 C 831.218517 21.098417 835.988654 24.677072 839.491526 29.421948 C 843.015449 34.171034 844.779515 39.985296 844.779515 46.860525 Z M 814.158857 46.473188 C 814.158857 43.378703 813.106311 40.886275 811.00122 38.995903 C 808.896128 37.105531 806.294235 36.15824 803.199751 36.15824 L 791.853309 36.15824 C 790.716559 36.15824 789.920835 36.38559 789.470345 36.83608 C 789.040907 37.265518 788.826187 37.964409 788.826187 38.932751 L 788.826187 53.853638 C 788.826187 54.906184 788.998805 55.659806 789.33983 56.110296 C 789.706115 56.539735 790.27449 56.754454 791.049164 56.754454 L 804.003896 56.754454 C 807.077329 56.754454 809.540286 55.769271 811.388556 53.790485 C 813.236827 51.81591 814.158857 49.374004 814.158857 46.473188 Z M 941.024292 108.779682 C 941.19691 109.120706 941.281113 109.604877 941.281113 110.227984 C 941.281113 111.023709 941.036923 111.688918 940.540121 112.227821 C 940.068581 112.741464 939.445474 112.998285 938.6708 112.998285 L 913.047628 112.998285 C 911.199358 112.998285 910.007876 112.076255 909.468973 110.227984 L 897.061564 76.159186 C 896.804743 75.451875 896.362674 74.925603 895.739567 74.580368 C 895.137511 74.235133 894.215481 74.062515 892.969267 74.062515 L 886.906604 74.062515 C 886.37191 74.062515 885.971943 74.235133 885.715122 74.580368 C 885.458301 74.925603 885.327785 75.237156 885.327785 75.515028 L 885.327785 109.162808 C 885.327785 110.58164 884.97413 111.583663 884.266819 112.160458 C 883.555298 112.720413 882.460651 112.998285 880.978666 112.998285 L 858.769953 112.998285 C 857.460586 112.998285 856.555396 112.741464 856.062805 112.227821 C 855.591265 111.688918 855.351284 110.851092 855.351284 109.714342 L 855.351284 18.079716 C 855.351284 16.058828 856.193321 15.048384 857.868973 15.048384 L 901.958007 15.048384 C 914.723281 15.048384 924.61721 17.48608 931.644005 22.365682 C 938.691851 27.241073 942.215774 34.128932 942.215774 43.025048 C 942.215774 49.104552 940.607484 54.523057 937.382484 59.272143 C 934.178535 64.017019 930.031505 67.359904 924.941394 69.292378 C 924.402491 69.57446 924.133039 70.012319 924.133039 70.614375 C 924.133039 70.875407 924.221453 71.271164 924.39407 71.810067 Z M 900.766525 54.371491 C 904.11783 54.371491 906.698672 53.521034 908.504841 51.82433 C 910.306799 50.106575 911.211988 47.786765 911.211988 44.860688 C 911.211988 41.618847 910.125761 39.092737 907.953307 37.286569 C 905.806114 35.484611 903.141068 34.579422 899.96238 34.579422 L 888.359117 34.579422 C 887.218157 34.579422 886.422433 34.785721 885.971943 35.194108 C 885.542504 35.581445 885.327785 36.255074 885.327785 37.223416 L 885.327785 51.60119 C 885.327785 52.565322 885.479352 53.276843 885.778275 53.727333 C 886.081408 54.156771 886.670833 54.371491 887.550762 54.371491 Z M 997.680721 114.320282 C 988.077294 114.320282 979.6864 112.278343 972.508038 108.198676 C 965.333887 104.093748 959.810127 98.279486 955.940969 90.7601 C 952.076022 83.240713 950.139338 74.420381 950.139338 64.299101 C 950.139338 54.177822 952.097073 45.315388 956.008332 37.707587 C 959.940643 30.078736 965.481243 24.18027 972.638554 20.012189 C 979.816915 15.823058 988.161498 13.726387 997.680721 13.726387 C 1007.094689 13.726387 1015.355068 15.823058 1022.470276 20.012189 C 1029.602326 24.18027 1035.126086 30.078736 1039.033135 37.707587 C 1042.965446 45.315388 1044.931601 54.177822 1044.931601 64.299101 C 1044.931601 74.331967 1042.990707 83.131249 1039.100498 90.696947 C 1035.23134 98.258435 1029.732842 104.093748 1022.596582 108.198676 C 1015.485583 112.278343 1007.178893 114.320282 997.680721 114.320282 Z M 997.680721 93.724068 C 1001.549879 93.724068 1004.623312 92.780987 1006.901021 90.890615 C 1009.199781 89.000243 1010.875433 85.947861 1011.927979 81.733468 C 1012.980525 77.502234 1013.506798 71.818488 1013.506798 64.686438 C 1013.506798 53.769434 1012.273214 45.938495 1009.801837 41.189408 C 1007.35151 36.440322 1003.313945 34.065779 997.680721 34.065779 C 991.946452 34.065779 987.820473 36.440322 985.306994 41.189408 C 982.814566 45.938495 981.568352 53.769434 981.568352 64.686438 C 981.568352 71.818488 982.094624 77.502234 983.14717 81.733468 C 984.199716 85.947861 985.883789 89.000243 988.20781 90.890615 C 990.548671 92.780987 993.706308 93.724068 997.680721 93.724068 Z M 997.680721 93.724068 " stroke="#5a41ad" stroke-width="4.9509" stroke-opacity="1" stroke-miterlimit="4"/></g></svg>